<svg xmlns="http://www.w3.org/2000/svg" width="44" height="44" viewBox="0 0 44 44">
  <g id="Group_177668" data-name="Group 177668" transform="translate(-15691 2368)">
    <path id="Path_106058" data-name="Path 106058" d="M34.25,4.75v33H6.75v-33h27.5m0-2.75H6.75A2.75,2.75,0,0,0,4,4.75v33A2.75,2.75,0,0,0,6.75,40.5h27.5A2.75,2.75,0,0,0,37,37.75v-33A2.75,2.75,0,0,0,34.25,2Z" transform="translate(15692.5 -2367)" fill="#822c74"/>
    <rect id="Rectangle_163349" data-name="Rectangle 163349" width="2.75" height="2.75" transform="translate(15703.375 -2336.375)" fill="#822c74"/>
    <rect id="Rectangle_163350" data-name="Rectangle 163350" width="2.75" height="2.75" transform="translate(15719.875 -2336.375)" fill="#822c74"/>
    <rect id="Rectangle_163351" data-name="Rectangle 163351" width="2.75" height="2.75" transform="translate(15703.375 -2343.25)" fill="#822c74"/>
    <rect id="Rectangle_163352" data-name="Rectangle 163352" width="2.75" height="2.75" transform="translate(15719.875 -2343.25)" fill="#822c74"/>
    <rect id="Rectangle_163353" data-name="Rectangle 163353" width="2.75" height="2.75" transform="translate(15703.375 -2350.125)" fill="#822c74"/>
    <rect id="Rectangle_163354" data-name="Rectangle 163354" width="2.75" height="2.75" transform="translate(15711.625 -2336.375)" fill="#822c74"/>
    <rect id="Rectangle_163355" data-name="Rectangle 163355" width="2.75" height="2.75" transform="translate(15711.625 -2343.25)" fill="#822c74"/>
    <rect id="Rectangle_163356" data-name="Rectangle 163356" width="2.75" height="2.75" transform="translate(15711.625 -2350.125)" fill="#822c74"/>
    <rect id="Rectangle_163357" data-name="Rectangle 163357" width="2.75" height="2.75" transform="translate(15719.875 -2350.125)" fill="#822c74"/>
    <rect id="Rectangle_163358" data-name="Rectangle 163358" width="19.25" height="4.125" transform="translate(15703.375 -2358.375)" fill="#822c74"/>
    <rect id="_Transparent_Rectangle_" data-name="&lt;Transparent Rectangle&gt;" width="44" height="44" transform="translate(15691 -2368)" fill="none"/>
  </g>
</svg>
