<svg xmlns="http://www.w3.org/2000/svg" width="44" height="44" viewBox="0 0 44 44">
  <g id="Group_177667" data-name="Group 177667" transform="translate(-15027 2617)">
    <path id="Union_44" data-name="Union 44" d="M-16935.25,2678.5a2.749,2.749,0,0,1-2.75-2.75v-22a2.752,2.752,0,0,1,2.75-2.75h33a2.75,2.75,0,0,1,2.752,2.75v22a2.747,2.747,0,0,1-2.752,2.75Zm0-2.75h33v-15.125h-33Zm0-17.875h33v-4.123h-33Zm2.75,15.125v-2.75h13.752V2673Zm22.551-6.449v-2h2v2Z" transform="translate(31967.75 -5259.75)" fill="#822c74"/>
    <g id="purchase" transform="translate(15027 -2617)">
      <rect id="_Transparent_Rectangle_" data-name="&lt;Transparent Rectangle&gt;" width="44" height="44" fill="none"/>
    </g>
  </g>
</svg>
