<svg xmlns="http://www.w3.org/2000/svg" width="44" height="44" viewBox="0 0 44 44">
  <g id="Group_177669" data-name="Group 177669" transform="translate(-15928 2301)">
    <path id="Union_46" data-name="Union 46" d="M-16938,2532v-2.75h38.5V2532Zm0-5.5v-2.75h38.5v2.75Zm2.75-5.5a2.757,2.757,0,0,1-2.75-2.75v-16.5a2.754,2.754,0,0,1,2.75-2.75h33a2.757,2.757,0,0,1,2.752,2.75v16.5a2.753,2.753,0,0,1-2.752,2.75Zm0-2.75h33v-16.5h-33Zm11-8.251a5.5,5.5,0,0,1,5.5-5.5,5.5,5.5,0,0,1,5.5,5.5,5.506,5.506,0,0,1-5.5,5.5A5.5,5.5,0,0,1-16924.25,2510Zm2.75,0a2.747,2.747,0,0,0,2.752,2.75,2.749,2.749,0,0,0,2.75-2.75,2.757,2.757,0,0,0-2.75-2.75A2.75,2.75,0,0,0-16921.5,2510Zm11,0a2.752,2.752,0,0,1,2.75-2.75,2.749,2.749,0,0,1,2.75,2.75,2.746,2.746,0,0,1-2.75,2.75A2.749,2.749,0,0,1-16910.5,2510Zm-22,0a2.752,2.752,0,0,1,2.75-2.75,2.752,2.752,0,0,1,2.75,2.75,2.749,2.749,0,0,1-2.75,2.75A2.749,2.749,0,0,1-16932.5,2510Z" transform="translate(32868.75 -4794.5)" fill="#822c74"/>
    <rect id="_Transparent_Rectangle_" data-name="&lt;Transparent Rectangle&gt;" width="44" height="44" transform="translate(15928 -2301)" fill="rgba(0,0,0,0)"/>
  </g>
</svg>
