<svg xmlns="http://www.w3.org/2000/svg" width="122" height="90" viewBox="0 0 122 90"><g transform="translate(-1845.797 708)"><g transform="translate(1872.211 -708)"><path d="M2371.844-708a12.654,12.654,0,0,1,1.446.376,3.857,3.857,0,0,1,1.976,1.714q3.426,5.889,6.838,11.787,5.12,8.84,10.235,17.683,2.565,4.433,5.125,8.868c.036.061.066.126.123.236h-.3q-4.645,0-9.29.006a.418.418,0,0,1-.42-.243q-2.871-4.985-5.753-9.965-3.633-6.284-7.268-12.567-1.38-2.385-2.753-4.774c-.039-.068-.086-.132-.158-.241-.067.1-.118.164-.159.235q-2.474,4.261-4.948,8.523-1.87,3.225-3.734,6.453-1.859,3.208-3.722,6.413c-1.189,2.055-2.37,4.115-3.56,6.171q-2.048,3.539-4.1,7.074c-.879,1.517-1.8,3.01-2.612,4.563a3.775,3.775,0,0,0-.063,3.236,4.142,4.142,0,0,0,2.871,2.536.219.219,0,0,1,.144.1h-.55q-4.226,0-8.452,0a4.268,4.268,0,0,1-4.143-4.322,5.218,5.218,0,0,1,.8-2.447q1.238-2.147,2.49-4.287t2.5-4.305q1.155-1.991,2.306-3.985l3.076-5.312q1.332-2.3,2.665-4.6,1.792-3.09,3.583-6.18,2.141-3.7,4.276-7.4c.914-1.584,1.823-3.171,2.741-4.752,1.57-2.7,3.151-5.4,4.715-8.109a4.541,4.541,0,0,1,2.676-2.276c.333-.1.683-.136,1.025-.2Z" transform="translate(-2338.604 708)" fill="#fff"/><path d="M2717.971-155.015l1.281,2.208q1.764,3.047,3.532,6.092a.374.374,0,0,1,.007.437q-3.147,5.416-6.282,10.839c-.048.082-.094.166-.167.295h.383q16,0,32,0a.5.5,0,0,1,.5.288c1.119,1.945,2.249,3.883,3.375,5.824q.63,1.086,1.253,2.175c.034.061.059.127.109.236h-.357q-12.5,0-25,0c-3.582,0-7.164.02-10.746.02q-4.442,0-8.883-.027a4.212,4.212,0,0,1-4.244-3.326,3.934,3.934,0,0,1,.429-2.914q3.259-5.676,6.549-11.334,2.578-4.455,5.158-8.909C2717.223-153.729,2717.583-154.348,2717.971-155.015Z" transform="translate(-2684.849 184.798)" fill="#fff"/></g><path d="M2490.226,539.085h4.323v12.022l.059.029c.263-.3.528-.589.789-.887q1.551-1.774,3.1-3.551c.442-.507.893-1.008,1.323-1.526a.74.74,0,0,1,.64-.3c1.53.014,3.061.007,4.591.007h.362c-.366.406-.684.764-1.008,1.117q-2.356,2.572-4.718,5.139c-.123.133-.088.221-.011.349q2.144,3.6,4.282,7.21l1.534,2.59c.022.036.041.075.077.141-.114.006-.2.015-.283.016-1.549,0-3.1,0-4.645.007a.408.408,0,0,1-.414-.249q-1.86-3.349-3.732-6.691c-.026-.046-.055-.089-.132-.211-.237.261-.448.5-.667.732-.321.339-.657.665-.966,1.015a.7.7,0,0,0-.169.419c-.012,1.544-.008,3.088-.008,4.632v.332h-4.323Z" transform="translate(-609.754 -1179.919)" fill="#fff"/><path d="M1861.364,655.142h-3.143c-.432,0-.865-.011-1.3,0-.2.008-.316-.044-.356-.255-.089-.475-.192-.947-.288-1.42-.016-.077-.027-.156-.05-.289-.2.19-.359.347-.522.505a6.64,6.64,0,0,1-5.161,1.88,5.2,5.2,0,0,1-3.168-1.13,4.284,4.284,0,0,1-1.551-3.06,5.527,5.527,0,0,1,.72-3.522,4.942,4.942,0,0,1,3.359-2.235c1.275-.262,2.571-.42,3.858-.623.382-.06.767-.1,1.144-.185a1.319,1.319,0,0,0,1.2-1.04,1.714,1.714,0,0,0-.75-1.749,2.172,2.172,0,0,0-.54-.238,5.264,5.264,0,0,0-2.431-.093,2.131,2.131,0,0,0-1.809,1.912c-.017.1-.032.192-.05.3h-4.239c.139-.619.234-1.228.413-1.811a5,5,0,0,1,3.778-3.588,11.953,11.953,0,0,1,6.629.15,4.724,4.724,0,0,1,2.646,1.927,4.4,4.4,0,0,1,.636,2.44c0,3.052-.01,6.1.012,9.155a6.846,6.846,0,0,0,.246,1.609,1.174,1.174,0,0,0,.466.592c.185.13.287.236.251.46A2.136,2.136,0,0,0,1861.364,655.142Zm-5.307-8.006a7.886,7.886,0,0,1-2.692.816,13.523,13.523,0,0,0-1.724.411,2.008,2.008,0,0,0-1.476,2.074,1.832,1.832,0,0,0,1.717,2.005,4.093,4.093,0,0,0,3.292-1.1,2.41,2.41,0,0,0,.867-1.567C1856.1,648.905,1856.057,648.028,1856.057,647.136Z" transform="translate(0 -1273.615)" fill="#fff"/><path d="M2781.6,643.651h-4.159c.172-2.511,1.333-4.551,3.716-5.273a11.38,11.38,0,0,1,7.34.137,4.122,4.122,0,0,1,2.764,2.766,5.66,5.66,0,0,1,.2,1.511c.018,3.042,0,6.085.016,9.127a7.422,7.422,0,0,0,.169,1.383,1.2,1.2,0,0,0,.684.914.219.219,0,0,1,.1.155c.014.158,0,.318,0,.494-.1.006-.18.014-.258.014-1.4,0-2.79,0-4.185,0-.193,0-.3-.045-.337-.244-.093-.483-.2-.963-.3-1.445-.014-.066-.021-.134-.039-.253-.254.235-.469.446-.7.642a6.58,6.58,0,0,1-7.015,1.261,4.1,4.1,0,0,1-2.673-3.554,5.722,5.722,0,0,1,.415-3.16,4.71,4.71,0,0,1,3.34-2.688c1.007-.253,2.049-.372,3.077-.542.674-.111,1.35-.206,2.025-.308.071-.011.142-.025.212-.042.57-.138,1.07-.373,1.181-1.022a1.627,1.627,0,0,0-.8-1.791,3.5,3.5,0,0,0-1.153-.332,7.4,7.4,0,0,0-1.611,0,2.067,2.067,0,0,0-1.895,1.686C2781.683,643.27,2781.648,643.446,2781.6,643.651Zm5.584,3.2a8.137,8.137,0,0,1-2.881.86,10.309,10.309,0,0,0-1.565.386,2.041,2.041,0,0,0-1.489,2.2,1.828,1.828,0,0,0,1.677,1.882,4.139,4.139,0,0,0,2.885-.735,2.863,2.863,0,0,0,1.363-2.24C2787.225,648.436,2787.187,647.664,2787.187,646.848Z" transform="translate(-880.981 -1273.353)" fill="#fff"/><path d="M2171.895,643.609h-4.262c-.047-.184-.091-.364-.14-.543a1.928,1.928,0,0,0-1.443-1.456,5.194,5.194,0,0,0-3.229.129,1.294,1.294,0,0,0-.852,1.359,1.017,1.017,0,0,0,.549.84,6.38,6.38,0,0,0,2.057.694,34.524,34.524,0,0,1,4.345,1.058,6.57,6.57,0,0,1,2.151,1.2,3.589,3.589,0,0,1,1.262,2.338,5.306,5.306,0,0,1-.908,3.858,5.528,5.528,0,0,1-2.706,1.914,11.473,11.473,0,0,1-4.895.537,10.46,10.46,0,0,1-3.246-.738,5.184,5.184,0,0,1-3.445-4.517c-.012-.123,0-.248,0-.389h4.431a7.472,7.472,0,0,0,.157.8,1.854,1.854,0,0,0,1.169,1.224,5.862,5.862,0,0,0,4.009.112,1.7,1.7,0,0,0,.882-.678,1.1,1.1,0,0,0-.416-1.745,10.687,10.687,0,0,0-1.933-.647c-1.22-.306-2.46-.532-3.677-.846a6.793,6.793,0,0,1-2.58-1.242,3.77,3.77,0,0,1-1.459-2.935,5.231,5.231,0,0,1,1.419-3.938,5.13,5.13,0,0,1,2.529-1.475,11.105,11.105,0,0,1,7.165.427,4.812,4.812,0,0,1,2.914,3.686C2171.807,642.946,2171.842,643.265,2171.895,643.609Z" transform="translate(-294.514 -1273.626)" fill="#fff"/><path d="M3855.012,658.392h2.065c-.132.359-.243.7-.377,1.023a6.4,6.4,0,0,1-5.367,4.254,8.774,8.774,0,0,1-3.712-.26,6.453,6.453,0,0,1-4.446-4.623,11.188,11.188,0,0,1-.009-6.678,7.193,7.193,0,0,1,11.209-3.987,6.209,6.209,0,0,1,2.089,2.882,12.925,12.925,0,0,1,.747,4.669h-12.564c.031.428.04.827.091,1.221a6.532,6.532,0,0,0,1.225,3.229,4.849,4.849,0,0,0,3.687,1.951,5.283,5.283,0,0,0,3.622-.962,4.606,4.606,0,0,0,1.678-2.5C3854.97,658.543,3854.989,658.475,3855.012,658.392Zm.248-4.276c-.071-.552-.1-1.073-.208-1.578a4.962,4.962,0,0,0-6.875-3.756,5.212,5.212,0,0,0-2.9,2.991,7.726,7.726,0,0,0-.6,2.344Z" transform="translate(-1889.414 -1281.756)" fill="#fff"/><path d="M3117.665,638.716v4.344a12.221,12.221,0,0,0-1.324.009,8.776,8.776,0,0,0-1.846.32,2.968,2.968,0,0,0-2,2.521,6.805,6.805,0,0,0-.1,1.122c-.008,2.755,0,5.51,0,8.264v.344h-4.332V639.123h4.163V641.9l.071.023c.088-.146.178-.29.263-.438a6.789,6.789,0,0,1,1.411-1.851,4.305,4.305,0,0,1,3.14-.965C3117.29,638.68,3117.467,638.7,3117.665,638.716Z" transform="translate(-1194.333 -1274.135)" fill="#fff"/><path d="M3324.554,663.523v-16.53h4.324v16.53Z" transform="translate(-1399.16 -1282.015)" fill="#fff"/><path d="M3683.436,554.422H3681.6V539.916h-2.411v-1.55h2.406v-.316c0-.951-.01-1.9.016-2.853a4.722,4.722,0,0,1,.49-1.969,2.544,2.544,0,0,1,1.81-1.435,7.275,7.275,0,0,1,2.638,0v1.659c-.309-.043-.608-.107-.91-.123a1.709,1.709,0,0,0-1.843.826,3.409,3.409,0,0,0-.323,1.289c-.047.957-.015,1.918-.015,2.911h3.089v1.551h-3.108Z" transform="translate(-1734.767 -1172.905)" fill="#fff"/><path d="M3482.931,562.52h-1.756V540.234h1.756Z" transform="translate(-1547.344 -1181.006)" fill="#fff"/><path d="M3598.223,656.193h1.759v16.035h-1.759Z" transform="translate(-1658.091 -1290.72)" fill="#fff"/><path d="M3327.406,532.992a2.121,2.121,0,1,1-2.144,2.135A2.152,2.152,0,0,1,3327.406,532.992Z" transform="translate(-1399.829 -1174.154)" fill="#fff"/><path d="M3588.738,541.732a1.464,1.464,0,1,1-.01,2.927,1.464,1.464,0,1,1,.01-2.927Z" transform="translate(-1647.721 -1182.423)" fill="#fff"/></g></svg>