<svg xmlns="http://www.w3.org/2000/svg" width="44" height="44" viewBox="0 0 44 44">
  <g id="Group_177677" data-name="Group 177677" transform="translate(-10 -10)">
    <path id="Union_43" data-name="Union 43" d="M-16935.25,2765.5a2.763,2.763,0,0,1-2.75-2.75v-33a2.759,2.759,0,0,1,2.75-2.746h13.75a1.233,1.233,0,0,1,.961.412l9.629,9.624a1.255,1.255,0,0,1,.408.961v24.753a2.759,2.759,0,0,1-2.746,2.75Zm0-2.75h22v-22h-8.252a2.758,2.758,0,0,1-2.75-2.75v-8.251h-11Zm13.75-24.753h7.7l-7.7-7.7Zm-11,19.252v-2.75h16.5v2.75Zm0-8.251v-2.75h16.5V2749Z" transform="translate(16956.25 -2714.25)" fill="#822c74"/>
    <rect id="Rectangle_163348" data-name="Rectangle 163348" width="44" height="44" transform="translate(10 10)" fill="none"/>
  </g>
</svg>
