<svg xmlns="http://www.w3.org/2000/svg" xmlns:xlink="http://www.w3.org/1999/xlink" width="20" height="20" viewBox="0 0 20 20">
  <defs>
    <clipPath id="clip-path">
      <rect id="Rectangle_163003" data-name="Rectangle 163003" width="20" height="20" transform="translate(-11324.324 -16910.324)" fill="#fff" stroke="#707070" stroke-width="1"/>
    </clipPath>
  </defs>
  <g id="Mask_Group_175121" data-name="Mask Group 175121" transform="translate(11324.324 16910.324)" clip-path="url(#clip-path)">
    <g id="Group_176281" data-name="Group 176281">
      <path id="call_FILL1_wght200_GRAD0_opsz24" d="M16.543-3.5A10.486,10.486,0,0,1,12.012-4.6,15.62,15.62,0,0,1,7.692-7.709,15.833,15.833,0,0,1,4.6-12.021,10.433,10.433,0,0,1,3.5-16.543a.918.918,0,0,1,.262-.664.875.875,0,0,1,.655-.271H6.574a.934.934,0,0,1,.622.224,1.11,1.11,0,0,1,.36.576l.434,2.084a1.418,1.418,0,0,1-.022.64.915.915,0,0,1-.291.449L5.759-11.717A13.786,13.786,0,0,0,6.948-9.9,18.065,18.065,0,0,0,8.337-8.315,15,15,0,0,0,9.976-6.9,17,17,0,0,0,11.9-5.663l1.869-1.9a1.019,1.019,0,0,1,.48-.3,1.468,1.468,0,0,1,.589-.029l1.839.376a1.047,1.047,0,0,1,.578.359.956.956,0,0,1,.222.623v2.128a.875.875,0,0,1-.271.655A.918.918,0,0,1,16.543-3.5Z" transform="translate(-11324.812 -16890.141)" fill="#fff"/>
    </g>
  </g>
</svg>
